<svg xmlns="http://www.w3.org/2000/svg" width="1366.25" height="111.578" viewBox="0 0 1366.25 111.578">
  <g id="Group_212" data-name="Group 212" transform="translate(2036.25 8953.578) rotate(180)">
    <path id="Subtraction_1" data-name="Subtraction 1" d="M52.086,103.773a52.665,52.665,0,0,1-10.5-1.054A51.8,51.8,0,0,1,15.256,15.2,52.046,52.046,0,0,1,52.086,0V103.773Z" transform="translate(1100.093 8842)" fill="#fff" opacity="0.347"/>
    <path id="Subtraction_2" data-name="Subtraction 2" d="M55.557,111.578a55.744,55.744,0,0,1-11.2-1.133,55.131,55.131,0,0,1-19.866-8.394A55.875,55.875,0,0,1,33.932,4.384,55.11,55.11,0,0,1,44.361,1.133,55.743,55.743,0,0,1,55.557,0V111.578Z" transform="translate(835.565 8953.578) rotate(180)" fill="#fff" opacity="0.354"/>
    <path id="Subtraction_9" data-name="Subtraction 9" d="M55.557,111.578a55.744,55.744,0,0,1-11.2-1.133,55.131,55.131,0,0,1-19.866-8.394A55.875,55.875,0,0,1,33.932,4.384,55.11,55.11,0,0,1,44.361,1.133,55.743,55.743,0,0,1,55.557,0V111.578Z" transform="translate(1754.565 8953.578) rotate(180)" fill="#fff" opacity="0.354"/>
    <path id="Subtraction_6" data-name="Subtraction 6" d="M54.372,109.2a54.553,54.553,0,0,1-10.958-1.109,53.954,53.954,0,0,1-19.442-8.215A54.682,54.682,0,0,1,33.208,4.291,53.933,53.933,0,0,1,43.414,1.109,54.553,54.553,0,0,1,54.372,0V109.2Z" transform="translate(724.372 8951.197) rotate(180)" fill="#fff" opacity="0.198"/>
    <path id="Subtraction_10" data-name="Subtraction 10" d="M54.372,109.2a54.553,54.553,0,0,1-10.958-1.109,53.954,53.954,0,0,1-19.442-8.215A54.682,54.682,0,0,1,33.208,4.291,53.933,53.933,0,0,1,43.414,1.109,54.553,54.553,0,0,1,54.372,0V109.2Z" transform="translate(1643.372 8951.197) rotate(180)" fill="#fff" opacity="0.198"/>
    <path id="Subtraction_8" data-name="Subtraction 8" d="M54.4,109.25a54.579,54.579,0,0,1-10.963-1.11,53.98,53.98,0,0,1-19.451-8.219,54.709,54.709,0,0,1,9.24-95.629A53.96,53.96,0,0,1,43.435,1.11,54.58,54.58,0,0,1,54.4,0V109.25Z" transform="translate(1445.593 8951.25) rotate(180)" fill="#fff" opacity="0.198"/>
    <path id="Subtraction_7" data-name="Subtraction 7" d="M54.4,109.25a54.579,54.579,0,0,1-10.963-1.11,53.98,53.98,0,0,1-19.451-8.219,54.709,54.709,0,0,1,9.24-95.629A53.96,53.96,0,0,1,43.435,1.11,54.58,54.58,0,0,1,54.4,0V109.25Z" transform="translate(1403.85 8951.25) rotate(180)" fill="#fff" opacity="0.198"/>
    <g id="Group_199" data-name="Group 199" transform="translate(785.235 7400.663)">
      <path id="Subtraction_5" data-name="Subtraction 5" d="M54.4,109.251a54.579,54.579,0,0,1-10.963-1.11,53.98,53.98,0,0,1-19.452-8.219,54.709,54.709,0,0,1,9.24-95.629A53.96,53.96,0,0,1,43.435,1.11,54.58,54.58,0,0,1,54.4,0V109.251Z" transform="translate(1189.33 1443.386)" fill="#fff" opacity="0.198"/>
      <path id="Path_35" data-name="Path 35" d="M178.91,52.649a46.185,46.185,0,0,0-18.163,3.509c-10.114,4.021-18.742,15.727-21.126,20.258s-6.334,18.13-5.3,24.606,5.064,15.846,8.945,19.667,11.339,9.261,17.487,11.592,18.163,5.428,18.163,5.428" transform="translate(1070.599 1403.556)" fill="none" stroke="#b68042" stroke-width="2"/>
      <path id="Path_36" data-name="Path 36" d="M168.876,52.645a35.832,35.832,0,0,0-14.091,2.722c-7.847,3.12-14.541,12.2-16.391,15.717s-4.914,14.066-4.116,19.09,3.929,12.294,6.94,15.259a45.943,45.943,0,0,0,13.567,8.993c4.769,1.809,14.091,4.212,14.091,4.212" transform="translate(1080.634 1412.38)" fill="none" stroke="#b68042" stroke-width="2"/>
      <path id="Path_6" data-name="Path 6" d="M185.727,52.653s-9.275-.591-20.929,4.043-21.6,18.122-24.344,23.343-7.3,20.891-6.113,28.353,5.835,18.26,10.307,22.663,13.066,10.671,20.15,13.357,20.929,6.255,20.929,6.255" transform="translate(1065.037 1396.364)" fill="none" stroke="#b68042" stroke-width="2"/>
    </g>
  </g>
</svg>
