<svg xmlns="http://www.w3.org/2000/svg" width="270.002" height="257.974" viewBox="0 0 270.002 257.974">
  <g id="Hero_background1" transform="translate(-541.882 -348.486)">
    <path id="Subtraction_1" data-name="Subtraction 1" d="M128.451,257.974a128.88,128.88,0,0,1-25.887-2.62,127.465,127.465,0,0,1-45.931-19.408A129.185,129.185,0,0,1,78.452,10.136a127.416,127.416,0,0,1,24.112-7.516A128.88,128.88,0,0,1,128.451,0V257.974Z" transform="translate(671.962 348.486)" fill="#fff" opacity="0.347"/>
    <path id="Subtraction_2" data-name="Subtraction 2" d="M128.451,257.974a128.88,128.88,0,0,1-25.887-2.62,127.465,127.465,0,0,1-45.931-19.408A129.185,129.185,0,0,1,78.452,10.136a127.416,127.416,0,0,1,24.112-7.516A128.88,128.88,0,0,1,128.451,0V257.974Z" transform="translate(671.962 606.46) rotate(180)" fill="#fff" opacity="0.354"/>
    <path id="Subtraction_5" data-name="Subtraction 5" d="M122.365,245.751a122.772,122.772,0,0,1-24.661-2.5A121.425,121.425,0,0,1,53.95,224.766,123.064,123.064,0,0,1,74.735,9.656,121.379,121.379,0,0,1,97.7,2.5,122.774,122.774,0,0,1,122.365,0V245.751Z" transform="translate(664.247 359)" fill="#fff" opacity="0.198"/>
    <path id="Subtraction_6" data-name="Subtraction 6" d="M122.365,245.751a122.772,122.772,0,0,1-24.661-2.5A121.425,121.425,0,0,1,53.95,224.766,123.064,123.064,0,0,1,74.735,9.656,121.379,121.379,0,0,1,97.7,2.5,122.774,122.774,0,0,1,122.365,0V245.751Z" transform="translate(664.247 604.578) rotate(180)" fill="#fff" opacity="0.198"/>
    <path id="Path_35" data-name="Path 35" d="M234.836,52.676s-18.106-1.153-40.856,7.893-42.158,35.376-47.522,45.568-14.248,40.782-11.933,55.349,11.39,35.645,20.12,44.24,25.507,20.831,39.335,26.075,40.856,12.211,40.856,12.211" transform="translate(573.974 329.107)" fill="none" stroke="#b68042" stroke-width="2"/>
    <path id="Path_36" data-name="Path 36" d="M212.265,52.665s-14.047-.895-31.7,6.123S147.86,86.234,143.7,94.142s-11.054,31.64-9.258,42.941,8.837,27.655,15.61,34.323,19.789,16.161,30.517,20.23,31.7,9.474,31.7,9.474" transform="translate(596.545 348.954)" fill="none" stroke="#b68042" stroke-width="2"/>
    <path id="Path_6" data-name="Path 6" d="M250.172,52.683s-20.863-1.329-47.079,9.095-48.579,40.764-54.76,52.509-16.418,46.994-13.75,63.779,13.125,41.074,23.185,50.978,29.392,24,45.326,30.046,47.079,14.071,47.079,14.071" transform="translate(561.463 312.929)" fill="none" stroke="#b68042" stroke-width="2"/>
  </g>
</svg>
