<svg xmlns="http://www.w3.org/2000/svg" width="439.003" height="245.751" viewBox="0 0 439.003 245.751">
  <g id="Hero_background2" transform="translate(-848.613 -359)">
    <path id="Subtraction_8" data-name="Subtraction 8" d="M122.365,245.751a122.772,122.772,0,0,1-24.661-2.5A121.425,121.425,0,0,1,53.95,224.766,123.064,123.064,0,0,1,74.735,9.656,121.379,121.379,0,0,1,97.7,2.5,122.774,122.774,0,0,1,122.365,0V245.751Z" transform="translate(1287.615 604.751) rotate(180)" fill="#fff" opacity="0.198"/>
    <path id="Subtraction_7" data-name="Subtraction 7" d="M122.365,245.751a122.772,122.772,0,0,1-24.661-2.5A121.425,121.425,0,0,1,53.95,224.766,123.064,123.064,0,0,1,74.735,9.656,121.379,121.379,0,0,1,97.7,2.5,122.774,122.774,0,0,1,122.365,0V245.751Z" transform="translate(970.978 604.751) rotate(180)" fill="#fff" opacity="0.198"/>
  </g>
</svg>
