<svg xmlns="http://www.w3.org/2000/svg" width="83.511" height="77.117" viewBox="0 0 83.511 77.117">
  <g id="JC_logo" transform="translate(-70.248 -33.486)">
    <g id="Group_3" data-name="Group 3" transform="translate(73.484 33.486)">
      <path id="Subtraction_1" data-name="Subtraction 1" d="M38.4,77.117a38.527,38.527,0,0,1-7.739-.783,38.1,38.1,0,0,1-13.73-5.8,38.617,38.617,0,0,1,6.522-67.5A38.089,38.089,0,0,1,30.66.783,38.527,38.527,0,0,1,38.4,0V77.117Z" transform="translate(38.398 0)" fill="#fff" opacity="0.347"/>
      <path id="Subtraction_2" data-name="Subtraction 2" d="M38.4,77.117a38.527,38.527,0,0,1-7.739-.783,38.1,38.1,0,0,1-13.73-5.8,38.617,38.617,0,0,1,6.522-67.5A38.089,38.089,0,0,1,30.66.783,38.527,38.527,0,0,1,38.4,0V77.117Z" transform="translate(38.398 77.117) rotate(180)" fill="#fff" opacity="0.354"/>
      <path id="Path_6" data-name="Path 6" d="M168.831,52.645a35.786,35.786,0,0,0-14.073,2.719c-7.837,3.116-14.522,12.186-16.37,15.7s-4.908,14.048-4.11,19.065,3.924,12.278,6.931,15.239a45.884,45.884,0,0,0,13.549,8.982c4.763,1.806,14.073,4.206,14.073,4.206" transform="translate(-88.681 -47.525)" fill="none" stroke="#000" stroke-width="1"/>
    </g>
    <g id="Group_6" data-name="Group 6" transform="translate(71 34.079)">
      <path id="Path_33" data-name="Path 33" d="M1646.5-815.716l-33.041,19.993,33.041,23.11" transform="translate(-1566.817 833.542)" fill="none" stroke="#fff" stroke-width="2"/>
      <path id="Subtraction_5" data-name="Subtraction 5" d="M36.579,73.463a36.7,36.7,0,0,1-7.372-.746,36.3,36.3,0,0,1-13.08-5.527,36.788,36.788,0,0,1,6.213-64.3A36.284,36.284,0,0,1,29.207.746,36.7,36.7,0,0,1,36.579,0V73.463Z" transform="translate(38.576 2.498)" fill="#fff" opacity="0.198"/>
      <path id="Subtraction_6" data-name="Subtraction 6" d="M36.579,73.463a36.7,36.7,0,0,1-7.372-.746,36.3,36.3,0,0,1-13.08-5.527,36.788,36.788,0,0,1,6.213-64.3A36.284,36.284,0,0,1,29.207.746,36.7,36.7,0,0,1,36.579,0V73.463Z" transform="translate(38.576 75.96) rotate(180)" fill="#fff" opacity="0.198"/>
      <path id="Path_34" data-name="Path 34" d="M1466.045-871.194v48.867l-11.6,13.225" transform="translate(-1454.449 871.194)" fill="none" stroke="#fff" stroke-width="2"/>
    </g>
  </g>
</svg>
