<svg xmlns="http://www.w3.org/2000/svg" width="402.432" height="559.184" viewBox="0 0 402.432 559.184">
  <g id="Line_Flower" transform="translate(0.823 0.566)" opacity="0.563">
    <path id="Path_11" data-name="Path 11" d="M384.891-149.282c-3.815-9.648-5.855-19.9-9.155-29.736s-8.112-19.565-16.166-26.1c-10.309-8.37-24.249-10.308-37.428-11.934l-31.759-3.917c-6.121-.755-12.609-1.459-18.219,1.1-6.158,2.809-10.048,9.049-12.453,15.376-2.509,6.6-3.8,13.839-2.461,20.776,1.872,9.708,8.551,17.685,15.045,25.14,4.427,5.082,8.992,10.237,14.847,13.575,6.24,3.559,13.486,4.8,20.475,6.459,21.509,5.113,41.613,14.624,62.783,20.838,7.045,2.068,23.617,9.762,24.607-.8C395.979-128.89,388.553-140.021,384.891-149.282Z" transform="translate(-156.574 368.012)" fill="none" stroke="#535353" stroke-miterlimit="10" stroke-width="1"/>
    <path id="Path_12" data-name="Path 12" d="M181.682-156.5l9.062-21.514c3.794-9.008,7.638-19.071,4.368-28.282-.717-2.019-1.759-3.914-2.421-5.952-1.3-4-1.07-8.316-.686-12.5,2.832-30.847,13.306-60.408,23.7-89.591a122.287,122.287,0,0,1,7.161-17.269c2.588-4.792,5.812-9.228,8.237-14.1,2.99-6.012,4.7-12.563,6.4-19.059L243-385.886" transform="translate(46.488 420.669)" fill="none" stroke="#535353" stroke-miterlimit="10" stroke-width="1"/>
    <path id="Path_13" data-name="Path 13" d="M333.476-217.633a10.1,10.1,0,0,1-4.4-1.349,10.987,10.987,0,0,1-3.234-4.3l-7.1-13.657c-1.294-2.491-2.634-5.041-4.739-6.9a22.119,22.119,0,0,0-5.789-3.344q-11.751-5.235-23.891-9.526c-3.287-1.162-6.738-2.363-9.1-4.928-2.018-2.192-3-5.126-4.624-7.622-5.427-8.323-17.363-10.937-21.9-19.775,21.316.2,43.4.634,62.668,9.745,6.179,2.921,11.934,6.681,18.124,9.581,22.941,10.749,49.516,8.834,74.545,12.753a8.322,8.322,0,0,1,4.427,1.634,8.251,8.251,0,0,1,2.056,4.289c1.153,4.64,6.512,22.568,2.739,26.284-2.794,2.752-20.233.742-24.765,1.352C370.264-220.938,352.034-215.185,333.476-217.633Z" transform="translate(-170.62 389.612)" fill="none" stroke="#535353" stroke-miterlimit="10" stroke-width="1"/>
    <path id="Path_14" data-name="Path 14" d="M241.51-330.215c-4.836-3.749-10.626-6.138-15.393-9.974s-8.557-9.933-7.058-15.865a30.98,30.98,0,0,1,23.327,5.865,30.982,30.982,0,0,1,11.876,20.917c.444,3.929,1.577,12.141-1.251,14.844C249.905-320.426,247.02-325.942,241.51-330.215Z" transform="translate(9.462 411.221)" fill="none" stroke="#535353" stroke-miterlimit="10" stroke-width="1"/>
    <path id="Path_15" data-name="Path 15" d="M52.436-335.4c7.338-7.4,13.683-15.774,21.47-22.7,21.389-19.016,51.005-25.043,79.126-30.359,1.812-.343,3.821-.653,5.391.315,2.075,1.28,2.4,4.113,2.5,6.549.611,14.931,1.069,30.615-5.664,43.957-9,17.838-28.536,27.289-46.645,35.732-15,6.993-30.156,14.214-46.461,17.04-9.571,1.659-44.573,3.392-44.826-11.982-.12-7.277,9.567-15.081,14.3-19.577C38.433-322.893,45.817-328.732,52.436-335.4Z" transform="translate(239.907 421.601)" fill="none" stroke="#535353" stroke-miterlimit="10" stroke-width="1"/>
    <path id="Path_16" data-name="Path 16" d="M151.636-343.774c7.2-3.586,14.374-7.525,20.086-13.191a43.654,43.654,0,0,0,12.23-36.83,10.158,10.158,0,0,0-1.736-4.88,13.968,13.968,0,0,0-4.12-3c-12.294-7.261-18.308-21.652-22.132-35.408-17.416,2.876-36.33,6.563-47.814,19.969-4.507,5.261-7.489,11.662-9.765,18.2-7.585,21.806-9.678,48.884-6.76,71.8.9,7.1,3.3,4.831,9.762,2.974q9.055-2.6,17.925-5.8A302.361,302.361,0,0,0,151.636-343.774Z" transform="translate(167.128 437.086)" fill="none" stroke="#535353" stroke-miterlimit="10" stroke-width="1"/>
    <path id="Path_17" data-name="Path 17" d="M499.824,273.638c-3.815-9.648-5.855-19.9-9.155-29.736s-8.113-19.564-16.166-26.1c-10.309-8.37-24.249-10.308-37.428-11.934l-31.759-3.918c-6.12-.755-12.608-1.458-18.219,1.1-6.158,2.809-10.048,9.048-12.453,15.376-2.509,6.6-3.8,13.84-2.461,20.776,1.872,9.708,8.551,17.685,15.045,25.14,4.427,5.082,8.992,10.237,14.846,13.576,6.241,3.558,13.486,4.8,20.476,6.459,21.509,5.113,41.612,14.624,62.782,20.838,7.045,2.068,23.617,9.761,24.607-.8C510.912,294.029,503.486,282.9,499.824,273.638Z" transform="translate(-349.586 232.402)" fill="none" stroke="#535353" stroke-miterlimit="10" stroke-width="1"/>
    <path id="Path_18" data-name="Path 18" d="M448.409,205.286a10.109,10.109,0,0,1-4.4-1.349,11,11,0,0,1-3.233-4.3l-7.1-13.657c-1.294-2.49-2.635-5.041-4.738-6.9a22.134,22.134,0,0,0-5.789-3.344q-11.75-5.234-23.891-9.526c-3.287-1.162-6.738-2.363-9.1-4.929-2.018-2.192-3-5.126-4.625-7.622-5.426-8.323-17.363-10.937-21.9-19.775,21.315.2,43.4.635,62.668,9.745,6.179,2.921,11.934,6.681,18.124,9.581,22.941,10.749,49.516,8.834,74.545,12.753a6.3,6.3,0,0,1,6.482,5.922c1.154,4.64,6.512,22.568,2.739,26.285-2.793,2.752-20.232.741-24.764,1.352C485.2,201.981,466.966,207.734,448.409,205.286Z" transform="translate(-363.633 254.001)" fill="none" stroke="#535353" stroke-miterlimit="10" stroke-width="1"/>
    <path id="Path_19" data-name="Path 19" d="M271.948,219.373l11.137-25.1c4.662-10.509,9.385-22.247,5.366-32.993-.88-2.355-2.16-4.567-2.974-6.944-1.6-4.665-1.315-9.7-.843-14.586,3.48-35.986,16.351-70.473,29.117-104.518,2.571-6.856,5.156-13.743,8.8-20.146,3.181-5.591,7.142-10.766,10.122-16.455,3.674-7.014,5.781-14.655,7.863-22.234L347.3-48.231" transform="translate(-119.132 312.398)" fill="none" stroke="#535353" stroke-miterlimit="10" stroke-width="1"/>
    <path id="Path_20" data-name="Path 20" d="M388.847,82.736c3.141-5.8-1.811-13.162-7.946-15.588s-12.995-1.678-19.569-2.226a10.475,10.475,0,0,1-4.446-1.119c-2.028-1.179-3.136-3.417-4.472-5.344-6.6-9.525-19.373-12.016-30.837-13.73a34.124,34.124,0,0,0-8.266,20.922,8.092,8.092,0,0,0,.84,4.572,7.7,7.7,0,0,0,3.775,2.787c7.675,3.19,16.346,2.108,24.642,2.609C356.75,76.473,380.943,97.34,388.847,82.736Z" transform="translate(-189.74 282.591)" fill="none" stroke="#535353" stroke-miterlimit="10" stroke-width="1"/>
    <path id="Path_21" data-name="Path 21" d="M394.661,97.465l-46.28,1.394c-5.527.166-11.705.1-15.681-3.747-4.585-4.43-4.168-11.765-3.418-18.1" transform="translate(-205.124 272.238)" fill="none" stroke="#535353" stroke-miterlimit="10" stroke-width="1"/>
    <path id="Path_22" data-name="Path 22" d="M109.919,112.281c22.719-11.089,46.015-22.6,63.054-41.277,17.331-18.993,29.14-45.884,53.62-53.745,5.114-1.642,11.046-2.2,15.573.687,2.544,1.624,4.354,4.158,6,6.692a113.811,113.811,0,0,1,16.305,81.079c-1.989,11.071-5.751,22.031-12.586,30.963-12.029,15.719-31.735,23.166-50.516,29.416-20.753,6.906-42.909,13.333-64.2,8.338-19.49-4.573-34.984-18.015-48.249-32.347-5.217-5.637-14.266-12.314-8.846-18.653C83.752,119.122,103.755,115.29,109.919,112.281Z" transform="translate(93.466 291.834)" fill="none" stroke="#535353" stroke-miterlimit="10" stroke-width="1"/>
    <path id="Path_23" data-name="Path 23" d="M178.216,261.008c14.157-19.754,26.166-41.249,43.062-58.718,23.394-24.185,54.541-39.045,84.973-53.4,6.444,11.2,4.563,25.213,1.56,37.783-7.917,33.142-23.187,65.8-49.7,87.209-17.963,14.5-39.827,22.762-62.2,27.572-10.258,2.205-59.175,13.7-63.66,3.187C150.625,292.48,165.273,279.07,178.216,261.008Z" transform="translate(12.496 249.191)" fill="none" stroke="#535353" stroke-miterlimit="10" stroke-width="1"/>
    <path id="Path_24" data-name="Path 24" d="M315.68-42.975c1.048,10.347.457,21.344-4.884,30.268-3.9,6.518-10,11.385-16.137,15.87a305.047,305.047,0,0,1-63.675,35.722C226.1,20.821,221.2,2.588,220.278-16.1s2.463-38.124,12.955-53.616c5.282-7.8,12.171-14.35,19-20.834,5.638-5.351,15.355-18.986,23.136-20.533,9.074-1.8,15.741,9.215,20.314,15.593A109.674,109.674,0,0,1,315.68-42.975Z" transform="translate(-52.741 332.615)" fill="none" stroke="#535353" stroke-miterlimit="10" stroke-width="1"/>
  </g>
</svg>
