<svg xmlns="http://www.w3.org/2000/svg" width="915.034" height="822.633" viewBox="0 0 915.034 822.633">
  <g id="Group_212" data-name="Group 212" transform="translate(-6736.408 -4819.427)">
    <path id="Path_413" data-name="Path 413" d="M271.73,369.18c5.62-14.2,8.62-29.29,13.48-43.77S297.15,296.61,309,287c15.18-12.32,35.7-15.17,55.1-17.56l46.75-5.77c9-1.11,18.56-2.15,26.82,1.62,9.06,4.13,14.79,13.32,18.33,22.63,3.69,9.72,5.59,20.37,3.62,30.58-2.76,14.3-12.59,26-22.15,37-6.51,7.48-13.23,15.07-21.85,20-9.19,5.24-19.85,7.07-30.14,9.51-31.66,7.53-61.26,21.53-92.42,30.68-10.37,3-34.76,14.36-36.22-1.18C255.41,399.2,266.34,382.81,271.73,369.18Z" transform="translate(6719.527 4772.784)" fill="none" stroke="#8e8583" stroke-miterlimit="10" stroke-width="1" opacity="0.79"/>
    <path id="Path_414" data-name="Path 414" d="M272,436.06l-13.34-31.67c-5.59-13.26-11.24-28.07-6.43-41.63,1-3,2.59-5.76,3.56-8.76,1.91-5.88,1.58-12.24,1-18.4-4.17-45.41-19.59-88.92-34.88-131.88-3.08-8.65-6.17-17.34-10.54-25.42-3.81-7.05-8.55-13.59-12.12-20.76-4.41-8.85-6.93-18.49-9.42-28.06l-8.11-31.07" transform="translate(6719.527 4772.784)" fill="none" stroke="#8e8583" stroke-miterlimit="10" stroke-width="1" opacity="0.79"/>
    <path id="Path_429" data-name="Path 429" d="M252.5,572.726l12.425-114.2c-5.59-13.26-10.7-63.829-5.889-77.389,1-3-4.221-24.14-3.251-27.14,1.91-5.88,1.58-12.24,1-18.4-4.17-45.41-19.59-88.92-34.88-131.88-3.08-8.65-6.17-17.34-10.54-25.42-3.81-7.05-8.55-13.59-12.12-20.76-4.41-8.85-6.93-18.49-9.42-28.06l-8.11-31.07" transform="translate(7440.349 4905.399) rotate(60)" fill="none" stroke="#8e8583" stroke-miterlimit="10" stroke-width="1" opacity="0.79"/>
    <path id="Path_415" data-name="Path 415" d="M368.09,300.36a14.85,14.85,0,0,0,6.48-2c2.21-1.49,3.53-4,4.76-6.32l10.44-20.11c1.91-3.66,3.88-7.42,7-10.15a32.53,32.53,0,0,1,8.52-4.92q17.3-7.71,35.17-14c4.84-1.71,9.92-3.47,13.39-7.25,3-3.23,4.42-7.55,6.81-11.22,8-12.25,25.56-16.1,32.24-29.11-31.38.3-63.88.94-92.25,14.35-9.09,4.3-17.56,9.83-26.67,14.1-33.77,15.82-72.89,13-109.73,18.77-2.33.37-4.78.83-6.52,2.41s-2.45,4-3,6.31c-1.69,6.83-9.58,33.22-4,38.69,4.11,4.05,29.78,1.09,36.45,2C313.94,295.49,340.77,304,368.09,300.36Z" transform="translate(6719.527 4772.784)" fill="none" stroke="#8e8583" stroke-miterlimit="10" stroke-width="1" opacity="0.79"/>
    <path id="Path_416" data-name="Path 416" d="M238.38,166.45c7.12-5.52,15.64-9,22.66-14.68s12.6-14.62,10.39-23.36a45,45,0,0,0-51.82,39.43c-.65,5.78-2.32,17.87,1.84,21.85C226,180.86,230.27,172.74,238.38,166.45Z" transform="translate(6719.527 4772.784)" fill="none" stroke="#8e8583" stroke-miterlimit="10" stroke-width="1" opacity="0.79"/>
    <path id="Path_417" data-name="Path 417" d="M177.49,174.09c-10.81-10.89-20.15-23.22-31.61-33.41C114.4,112.69,70.8,103.82,29.41,96c-2.67-.5-5.63-1-7.94.46-3,1.89-3.52,6.06-3.67,9.64-.9,22-1.58,45.07,8.34,64.71,13.25,26.26,42,40.17,68.66,52.6,22.07,10.29,44.39,20.92,68.39,25.08,14.08,2.44,65.61,5,66-17.64.18-10.71-14.08-22.19-21-28.81C198.1,192.51,187.23,183.91,177.49,174.09Z" transform="translate(6719.527 4772.784)" fill="none" stroke="#8e8583" stroke-miterlimit="10" stroke-width="1" opacity="0.79"/>
    <path id="Path_427" data-name="Path 427" d="M69.025,174.09c10.81-10.89,20.15-23.22,31.61-33.41,31.48-27.99,75.08-36.86,116.47-44.68,2.67-.5,5.63-1,7.94.46,3,1.89,3.52,6.06,3.67,9.64.9,22,1.58,45.07-8.34,64.71-13.25,26.26-42,40.17-68.66,52.6-22.07,10.29-44.39,20.92-68.39,25.08-14.08,2.44-65.61,5-66-17.64-.18-10.71,14.08-22.19,21-28.81C48.415,192.51,59.285,183.91,69.025,174.09Z" transform="translate(7421.808 4895.755)" fill="none" stroke="#8e8583" stroke-miterlimit="10" stroke-width="1" opacity="0.79"/>
    <path id="Path_418" data-name="Path 418" d="M138.59,184.56c-10.6-5.27-21.16-11.07-29.57-19.41a64.3,64.3,0,0,1-18-54.22,15.3,15.3,0,0,1,2.56-7.18c1.56-2.02,3.9-3.14,6.06-4.42,18.1-10.69,27-31.87,32.58-52.12,25.64,4.23,53.48,9.66,70.38,29.39,6.64,7.74,11,17.17,14.38,26.8,11.16,32.1,14.24,72,10,105.68-1.33,10.46-4.86,7.11-14.37,4.38q-13.34-3.83-26.39-8.53a446.3,446.3,0,0,1-47.63-20.37Z" transform="translate(6719.527 4772.784)" fill="none" stroke="#8e8583" stroke-miterlimit="10" stroke-width="1" opacity="0.79"/>
    <path id="Path_432" data-name="Path 432" d="M128.121,154.726c-8.3-4.125-16.564-8.665-23.147-15.194a50.333,50.333,0,0,1-14.09-42.443,11.977,11.977,0,0,1,2-5.62c1.221-1.581,3.053-2.458,4.744-3.46,14.168-8.368,21.135-24.947,25.5-40.8C143.2,50.521,165,54.772,178.227,70.216c5.2,6.059,8.611,13.44,11.256,20.979,8.736,25.127,11.147,56.361,7.828,82.725-1.041,8.188-3.8,5.566-11.249,3.429q-10.442-3-20.658-6.677a349.36,349.36,0,0,1-37.284-15.945Z" transform="translate(7101.189 5106.042) rotate(14)" fill="none" stroke="#8e8583" stroke-miterlimit="10" stroke-width="1" opacity="0.79"/>
    <path id="Path_428" data-name="Path 428" d="M180.606,184.56c10.6-5.27,21.16-11.07,29.57-19.41a64.3,64.3,0,0,0,18-54.22,15.3,15.3,0,0,0-2.56-7.18c-1.56-2.02-3.9-3.14-6.06-4.42-18.1-10.69-27-31.87-32.58-52.12-25.64,4.23-53.48,9.66-70.38,29.39-6.64,7.74-11,17.17-14.38,26.8-11.16,32.1-14.24,72-10,105.68,1.33,10.46,4.86,7.11,14.37,4.38q13.34-3.83,26.39-8.53a446.3,446.3,0,0,0,47.63-20.37Z" transform="translate(7349.127 4895.755)" fill="none" stroke="#8e8583" stroke-miterlimit="10" stroke-width="1" opacity="0.79"/>
    <path id="Path_419" data-name="Path 419" d="M386.66,792.1c5.62-14.2,8.62-29.29,13.48-43.77s11.94-28.8,23.8-38.43c15.17-12.32,35.69-15.17,55.09-17.56l46.75-5.77c9-1.11,18.56-2.15,26.82,1.62,9.06,4.13,14.79,13.32,18.33,22.63,3.69,9.72,5.59,20.37,3.62,30.58-2.75,14.29-12.59,26-22.14,37-6.52,7.48-13.24,15.07-21.86,20-9.19,5.24-19.85,7.06-30.14,9.51-31.66,7.53-61.25,21.53-92.41,30.67-10.38,3-34.77,14.37-36.23-1.17C370.34,822.11,381.27,805.73,386.66,792.1Z" transform="translate(6719.527 4772.784)" fill="none" stroke="#8e8583" stroke-miterlimit="10" stroke-width="1" opacity="0.79"/>
    <path id="Path_430" data-name="Path 430" d="M386.66,792.1c5.62-14.2,8.62-29.29,13.48-43.77s11.94-28.8,23.8-38.43c15.17-12.32,35.69-15.17,55.09-17.56l46.75-5.77c9-1.11,18.56-2.15,26.82,1.62,9.06,4.13,14.79,13.32,18.33,22.63,3.69,9.72,5.59,20.37,3.62,30.58-2.75,14.29-12.59,26-22.14,37-6.52,7.48-13.24,15.07-21.86,20-9.19,5.24-19.85,7.06-30.14,9.51-31.66,7.53-61.25,21.53-92.41,30.67-10.38,3-34.77,14.37-36.23-1.17C370.34,822.11,381.27,805.73,386.66,792.1Z" transform="translate(8225.266 4944.834) rotate(110)" fill="none" stroke="#8e8583" stroke-miterlimit="10" stroke-width="1" opacity="0.79"/>
    <path id="Path_420" data-name="Path 420" d="M483,723.28a14.85,14.85,0,0,0,6.48-2c2.21-1.49,3.53-4,4.76-6.32l10.45-20.11c1.9-3.66,3.87-7.42,7-10.15a32.525,32.525,0,0,1,8.52-4.92q17.29-7.71,35.17-14c4.84-1.71,9.92-3.48,13.4-7.25,3-3.23,4.41-7.55,6.8-11.22,8-12.25,25.56-16.1,32.24-29.11-31.37.3-63.88.94-92.24,14.35-9.1,4.3-17.57,9.83-26.68,14.1-33.77,15.82-72.89,13-109.73,18.77-2.32.37-4.78.83-6.52,2.41s-2.45,4-3,6.31c-1.7,6.83-9.59,33.22-4,38.69,4.12,4.05,29.79,1.09,36.46,2C428.87,718.41,455.71,726.88,483,723.28Z" transform="translate(6719.527 4772.784)" fill="none" stroke="#8e8583" stroke-miterlimit="10" stroke-width="1" opacity="0.79"/>
    <path id="Path_431" data-name="Path 431" d="M483,723.28a14.85,14.85,0,0,0,6.48-2c2.21-1.49,3.53-4,4.76-6.32l10.45-20.11c1.9-3.66,3.87-7.42,7-10.15a32.525,32.525,0,0,1,8.52-4.92q17.29-7.71,35.17-14c4.84-1.71,9.92-3.48,13.4-7.25,3-3.23,4.41-7.55,6.8-11.22,8-12.25,25.56-16.1,32.24-29.11-31.37.3-63.88.94-92.24,14.35-9.1,4.3-17.57,9.83-26.68,14.1-33.77,15.82-72.89,13-109.73,18.77-2.32.37-4.78.83-6.52,2.41s-2.45,4-3,6.31c-1.7,6.83-9.59,33.22-4,38.69,4.12,4.05,29.79,1.09,36.46,2C428.87,718.41,455.71,726.88,483,723.28Z" transform="translate(6983.435 4546.181) rotate(2)" fill="none" stroke="#8e8583" stroke-miterlimit="10" stroke-width="1" opacity="0.79"/>
    <path id="Path_421" data-name="Path 421" d="M382.87,830q-8.21-18.48-16.39-37c-6.87-15.47-13.82-32.75-7.9-48.57,1.29-3.46,3.18-6.72,4.37-10.22,2.35-6.86,1.94-14.28,1.24-21.47-5.12-53-24.06-103.73-42.86-153.85-3.78-10.09-7.59-20.23-12.95-29.65-4.68-8.23-10.51-15.85-14.9-24.23-5.41-10.32-8.51-21.57-11.57-32.72l-10-36.26" transform="translate(6719.527 4772.784)" fill="none" stroke="#8e8583" stroke-miterlimit="10" stroke-width="1" opacity="0.79"/>
    <path id="Path_422" data-name="Path 422" d="M314.73,585c-4.62-8.54,2.66-19.38,11.7-23s19.12-2.47,28.8-3.27a15.43,15.43,0,0,0,6.54-1.65c3-1.74,4.62-5,6.59-7.87,9.72-14,28.51-17.69,45.39-20.21a50.23,50.23,0,0,1,12.17,30.8c.08,2.31,0,4.76-1.24,6.73a11.567,11.567,0,0,1-5.56,4.1c-11.29,4.7-24.06,3.1-36.27,3.84C362,575.75,326.36,606.47,314.73,585Z" transform="translate(6719.527 4772.784)" fill="none" stroke="#8e8583" stroke-miterlimit="10" stroke-width="1" opacity="0.79"/>
    <path id="Path_423" data-name="Path 423" d="M328.81,591.41l68.13,2.05c8.13.25,17.23.14,23.08-5.51,6.75-6.52,6.14-17.32,5-26.64" transform="translate(6719.527 4772.784)" fill="none" stroke="#8e8583" stroke-miterlimit="10" stroke-width="1" opacity="0.79"/>
    <path id="Path_424" data-name="Path 424" d="M308.43,642.06c-33.44-16.32-67.73-33.27-92.82-60.75-25.51-28-42.89-67.55-78.93-79.12-7.52-2.41-16.25-3.24-22.92,1-3.74,2.39-6.41,6.12-8.82,9.85a167.49,167.49,0,0,0-24,119.35c2.92,16.3,8.46,32.43,18.52,45.58,17.71,23.14,46.72,34.1,74.36,43.3,30.55,10.17,63.16,19.63,94.51,12.27,28.69-6.73,51.5-26.51,71-47.61,7.68-8.3,21-18.13,13-27.46C347,652.14,317.5,646.49,308.43,642.06Z" transform="translate(6719.527 4772.784)" fill="none" stroke="#8e8583" stroke-miterlimit="10" stroke-width="1" opacity="0.79"/>
    <path id="Path_425" data-name="Path 425" d="M327.09,798.22c-20.84-29.08-38.52-60.72-63.39-86.43-34.44-35.6-80.29-57.48-125.08-78.61-9.49,16.49-6.72,37.11-2.3,55.62,11.65,48.78,34.13,96.86,73.16,128.37,26.44,21.35,58.62,33.51,91.56,40.59,15.1,3.24,87.1,20.16,93.7,4.69C367.7,844.55,346.14,824.81,327.09,798.22Z" transform="translate(6719.527 4772.784)" fill="none" stroke="#8e8583" stroke-miterlimit="10" stroke-width="1" opacity="0.79"/>
    <path id="Path_426" data-name="Path 426" d="M220.77,473.56c-1.54,15.23-.67,31.42,7.19,44.55,5.74,9.6,14.72,16.76,23.75,23.36a449.28,449.28,0,0,0,93.73,52.59c7.18-26.59,14.41-53.43,15.76-80.94s-3.63-56.12-19.07-78.93c-7.78-11.48-17.92-21.12-28-30.66-8.3-7.88-22.61-27.95-34.06-30.23-13.36-2.65-23.17,13.57-29.9,23a161.4,161.4,0,0,0-29.4,77.26Z" transform="translate(6719.527 4772.784)" fill="none" stroke="#8e8583" stroke-miterlimit="10" stroke-width="1" opacity="0.79"/>
    <path id="Path_433" data-name="Path 433" d="M220.77,473.56c-1.54,15.23-.67,31.42,7.19,44.55,5.74,9.6,14.72,16.76,23.75,23.36a449.28,449.28,0,0,0,93.73,52.59c7.18-26.59,14.41-53.43,15.76-80.94s-3.63-56.12-19.07-78.93c-7.78-11.48-17.92-21.12-28-30.66-8.3-7.88-22.61-27.95-34.06-30.23-13.36-2.65-23.17,13.57-29.9,23a161.4,161.4,0,0,0-29.4,77.26Z" transform="translate(7826.695 5087.802) rotate(97)" fill="none" stroke="#8e8583" stroke-miterlimit="10" stroke-width="1" opacity="0.79"/>
  </g>
</svg>
