<svg xmlns="http://www.w3.org/2000/svg" width="108.251" height="51.398" viewBox="0 0 108.251 51.398">
  <g id="Group_215" data-name="Group 215" transform="translate(-284.875 -6572)">
    <path id="Subtraction_5" data-name="Subtraction 5" d="M51.4,103.251A51.557,51.557,0,0,1,41.04,102.2a51,51,0,0,1-18.379-7.768A51.707,51.707,0,0,1,31.392,4.057,50.975,50.975,0,0,1,41.04,1.049,51.558,51.558,0,0,1,51.4,0V103.251Z" transform="translate(284.875 6623.398) rotate(-90)" fill="#fff" opacity="0.198"/>
    <path id="Subtraction_11" data-name="Subtraction 11" d="M51.4,103.251A51.557,51.557,0,0,1,41.04,102.2a51,51,0,0,1-18.379-7.768A51.707,51.707,0,0,1,31.392,4.057,50.975,50.975,0,0,1,41.04,1.049,51.558,51.558,0,0,1,51.4,0V103.251Z" transform="translate(289.875 6623.398) rotate(-90)" fill="#fff" opacity="0.198"/>
    <g id="Group_214" data-name="Group 214" transform="translate(2)">
      <path id="Path_443" data-name="Path 443" d="M1375,6564.566l16.382,16.255,16.231-16.255" transform="translate(-1054.807 35.434)" fill="none" stroke="#2c2c2c" stroke-width="1.5"/>
      <text id="Scroll" transform="translate(309 6572)" fill="#2c2c2c" font-size="20" font-family="Roboto-Light, Roboto" font-weight="300"><tspan x="3.076" y="19">Scroll</tspan></text>
    </g>
  </g>
</svg>
