<svg xmlns="http://www.w3.org/2000/svg" width="72.825" height="59.309" viewBox="0 0 72.825 59.309">
  <g id="Group_208" data-name="Group 208" transform="translate(-1153.793 -834.084)">
    <path id="Path_438" data-name="Path 438" d="M16.072,14.771a2.977,2.977,0,0,1-1.162,2.5,5.039,5.039,0,0,1-3.154.9,7.9,7.9,0,0,1-3.32-.556V16.249a8.742,8.742,0,0,0,1.627.5,8.56,8.56,0,0,0,1.743.183,3.517,3.517,0,0,0,2.125-.535,1.757,1.757,0,0,0,.714-1.49,1.913,1.913,0,0,0-.253-1.033,2.352,2.352,0,0,0-.847-.743,11.845,11.845,0,0,0-1.805-.772,5.763,5.763,0,0,1-2.42-1.436,3.17,3.17,0,0,1-.726-2.167A2.694,2.694,0,0,1,9.647,6.52a4.381,4.381,0,0,1,2.789-.83,8.22,8.22,0,0,1,3.329.664l-.44,1.229A7.522,7.522,0,0,0,12.4,6.952a2.828,2.828,0,0,0-1.751.481A1.587,1.587,0,0,0,10.02,8.77,2.048,2.048,0,0,0,10.253,9.8a2.188,2.188,0,0,0,.784.739,9.746,9.746,0,0,0,1.689.743,6.688,6.688,0,0,1,2.627,1.461A2.873,2.873,0,0,1,16.072,14.771Zm5.91,3.4a3.883,3.883,0,0,1-3.059-1.216,5,5,0,0,1-1.083-3.441,5.157,5.157,0,0,1,1.1-3.528,3.96,3.96,0,0,1,3.134-1.245,6.218,6.218,0,0,1,1.312.141,4.321,4.321,0,0,1,1.029.332l-.423,1.17a6.479,6.479,0,0,0-1-.3,4.447,4.447,0,0,0-.955-.12q-2.772,0-2.772,3.536a4.211,4.211,0,0,0,.677,2.573,2.354,2.354,0,0,0,2,.9,6.129,6.129,0,0,0,2.333-.49v1.22A4.971,4.971,0,0,1,21.982,18.166Zm8.608-9.43a5.392,5.392,0,0,1,1.087.1l-.191,1.278a4.694,4.694,0,0,0-1-.125,2.425,2.425,0,0,0-1.888.9,3.269,3.269,0,0,0-.784,2.233V18H26.439V8.9h1.137l.158,1.685H27.8a4,4,0,0,1,1.22-1.37A2.747,2.747,0,0,1,30.59,8.736Zm10.3,4.707a5.019,5.019,0,0,1-1.121,3.474,3.947,3.947,0,0,1-3.1,1.249,4.1,4.1,0,0,1-2.167-.573,3.78,3.78,0,0,1-1.461-1.644,5.728,5.728,0,0,1-.515-2.507,5.011,5.011,0,0,1,1.112-3.466,3.934,3.934,0,0,1,3.088-1.241,3.849,3.849,0,0,1,3.034,1.27A5,5,0,0,1,40.891,13.443Zm-6.931,0a4.318,4.318,0,0,0,.7,2.656,2.767,2.767,0,0,0,4.1,0,4.3,4.3,0,0,0,.7-2.66,4.227,4.227,0,0,0-.7-2.635,2.464,2.464,0,0,0-2.071-.9,2.425,2.425,0,0,0-2.042.888A4.274,4.274,0,0,0,33.96,13.443ZM44.684,18H43.306V5.084h1.378Zm4.3,0H47.606V5.084h1.378Z" transform="translate(1161 829)" fill="#fff"/>
    <path id="Path_437" data-name="Path 437" d="M1770.46,6639.208l35.705,35.706,35.705-35.706" transform="translate(-615.96 -5782.934)" fill="none" stroke="#fff" stroke-width="2"/>
  </g>
</svg>
