<svg xmlns="http://www.w3.org/2000/svg" width="194.838" height="176.758" viewBox="0 0 194.838 176.758">
  <g id="Group_211" data-name="Group 211" transform="translate(-7415 961)">
    <path id="Path_1" data-name="Path 1" d="M59.926,77.339c-21.35,24.594-26.483,62.6-10.985,91.283C59.508,188.171,78.235,202.4,98.72,210.977c37.28,15.584,83.614,12.3,114.162-14.171,8.65-7.511,16-16.9,19.419-27.823,3.128-10.091,2.8-20.8,1.8-31.254-2.335-24.507-8.65-49.592-24.277-68.621C176.539,28.555,92.161,40.1,59.926,77.339Z" transform="translate(7375.04 -1004.588)" fill="#2c4441"/>
    <path id="Path_411" data-name="Path 411" d="M6.051,36.363a4.016,4.016,0,0,0,1.122.742,4.51,4.51,0,0,0,1.917.344,5.216,5.216,0,0,0,3.31-1.031,3.443,3.443,0,0,0,1.321-2.876,3.149,3.149,0,0,0-.85-2.243,9.491,9.491,0,0,0-2.153-1.664q-1.3-.76-2.786-1.5a16.665,16.665,0,0,1-2.786-1.755,8.9,8.9,0,0,1-2.153-2.406,6.522,6.522,0,0,1-.85-3.455,6.8,6.8,0,0,1,.651-3.075,5.981,5.981,0,0,1,1.791-2.153,7.844,7.844,0,0,1,2.7-1.266,12.988,12.988,0,0,1,3.365-.416,25.731,25.731,0,0,1,4.106.308,14.575,14.575,0,0,1,3.419.959q-.036.724-.127,1.664T17.809,18.4q-.145.923-.308,1.737t-.308,1.357H15.71l-1.664-4.956a5.634,5.634,0,0,0-1.284-.4,8.409,8.409,0,0,0-1.755-.181,4.126,4.126,0,0,0-2.569.8A2.728,2.728,0,0,0,7.389,19.07,3.352,3.352,0,0,0,8.257,21.4a9.783,9.783,0,0,0,2.171,1.755q1.3.8,2.84,1.574a17.416,17.416,0,0,1,2.84,1.791,9.418,9.418,0,0,1,2.171,2.37,6.086,6.086,0,0,1,.868,3.347,6.773,6.773,0,0,1-2.442,5.59Q14.263,39.8,9.524,39.8a19.087,19.087,0,0,1-2.334-.145,19.787,19.787,0,0,1-2.225-.4A18.692,18.692,0,0,1,3.1,38.715,4.145,4.145,0,0,1,1.89,38.1a16.992,16.992,0,0,1,.181-1.791q.145-.959.308-1.917t.344-1.827q.181-.868.362-1.519H4.567Zm32.09-.036a4.545,4.545,0,0,1-.923,1.248A6.441,6.441,0,0,1,35.663,38.7a9.6,9.6,0,0,1-2.135.8,10.644,10.644,0,0,1-2.623.308,11.012,11.012,0,0,1-3.98-.669,7.608,7.608,0,0,1-2.894-1.917,8.288,8.288,0,0,1-1.755-2.985,11.974,11.974,0,0,1-.6-3.907q0-4.631,2.424-7.055a9.1,9.1,0,0,1,6.729-2.424,11.452,11.452,0,0,1,3.455.506,6.021,6.021,0,0,1,2.677,1.664,6.43,6.43,0,0,1,1.483,3.039,12.055,12.055,0,0,1-.054,4.595H27.287a7,7,0,0,0,1.465,4.558,5.194,5.194,0,0,0,4.215,1.7,9.128,9.128,0,0,0,2.478-.362,5.664,5.664,0,0,0,2.008-.941ZM30.688,22.905a3.09,3.09,0,0,0-1.284.253,2.287,2.287,0,0,0-.977.923,5.87,5.87,0,0,0-.669,1.809,19.1,19.1,0,0,0-.362,2.876h5.825a10.136,10.136,0,0,0-.326-4.341A2.175,2.175,0,0,0,30.688,22.905ZM57.569,36.327a4.545,4.545,0,0,1-.923,1.248A6.441,6.441,0,0,1,55.09,38.7a9.6,9.6,0,0,1-2.135.8,10.644,10.644,0,0,1-2.623.308,11.012,11.012,0,0,1-3.98-.669,7.608,7.608,0,0,1-2.894-1.917A8.288,8.288,0,0,1,41.7,34.229a11.974,11.974,0,0,1-.6-3.907q0-4.631,2.424-7.055a9.1,9.1,0,0,1,6.729-2.424,11.452,11.452,0,0,1,3.455.506,6.021,6.021,0,0,1,2.677,1.664,6.43,6.43,0,0,1,1.483,3.039,12.055,12.055,0,0,1-.054,4.595H46.715a7,7,0,0,0,1.465,4.558,5.194,5.194,0,0,0,4.215,1.7,9.129,9.129,0,0,0,2.478-.362,5.664,5.664,0,0,0,2.008-.941ZM50.116,22.905a3.09,3.09,0,0,0-1.284.253,2.287,2.287,0,0,0-.977.923,5.87,5.87,0,0,0-.669,1.809,19.105,19.105,0,0,0-.362,2.876h5.825a10.136,10.136,0,0,0-.326-4.341A2.175,2.175,0,0,0,50.116,22.905Zm22.756,12.88a4.676,4.676,0,0,1-.651,1.519A6,6,0,0,1,71.1,38.588a5.1,5.1,0,0,1-1.483.886,4.821,4.821,0,0,1-1.773.326A6.648,6.648,0,0,1,62.4,37.539q-1.863-2.261-1.863-6.928a12.212,12.212,0,0,1,.651-4.179,8.517,8.517,0,0,1,1.827-3.021,7.432,7.432,0,0,1,2.84-1.845,10.576,10.576,0,0,1,3.69-.615q.651,0,1.1.036t.832.09a3.531,3.531,0,0,1,.724.181q.344.127.778.271V15.163l-2.75-.289V13.462a7.445,7.445,0,0,1,1.393-.4q.886-.181,1.863-.344t1.917-.308q.941-.145,1.556-.253h1.23V36.8l2.388.289v1.266a7.2,7.2,0,0,1-1.3.47q-.8.217-1.664.4t-1.682.308q-.814.127-1.357.2h-1.23l-.326-3.943ZM69.58,36.906a3.042,3.042,0,0,0,2.135-.8A5,5,0,0,0,72.981,33.4V23.665a4.265,4.265,0,0,0-1.176-.47,7.2,7.2,0,0,0-1.755-.181,3.094,3.094,0,0,0-3,1.9,13.247,13.247,0,0,0-.9,5.517,11.628,11.628,0,0,0,.8,4.7A2.716,2.716,0,0,0,69.58,36.906Z" transform="translate(7441.16 -906.302)" fill="#fff"/>
    <path id="Path_412" data-name="Path 412" d="M6.051,36.363a4.016,4.016,0,0,0,1.122.742,4.51,4.51,0,0,0,1.917.344,5.216,5.216,0,0,0,3.31-1.031,3.443,3.443,0,0,0,1.321-2.876,3.149,3.149,0,0,0-.85-2.243,9.491,9.491,0,0,0-2.153-1.664q-1.3-.76-2.786-1.5a16.665,16.665,0,0,1-2.786-1.755,8.9,8.9,0,0,1-2.153-2.406,6.522,6.522,0,0,1-.85-3.455,6.8,6.8,0,0,1,.651-3.075,5.981,5.981,0,0,1,1.791-2.153,7.844,7.844,0,0,1,2.7-1.266,12.988,12.988,0,0,1,3.365-.416,25.731,25.731,0,0,1,4.106.308,14.575,14.575,0,0,1,3.419.959q-.036.724-.127,1.664T17.809,18.4q-.145.923-.308,1.737t-.308,1.357H15.71l-1.664-4.956a5.634,5.634,0,0,0-1.284-.4,8.409,8.409,0,0,0-1.755-.181,4.126,4.126,0,0,0-2.569.8A2.728,2.728,0,0,0,7.389,19.07,3.352,3.352,0,0,0,8.257,21.4a9.783,9.783,0,0,0,2.171,1.755q1.3.8,2.84,1.574a17.416,17.416,0,0,1,2.84,1.791,9.418,9.418,0,0,1,2.171,2.37,6.086,6.086,0,0,1,.868,3.347,6.773,6.773,0,0,1-2.442,5.59Q14.263,39.8,9.524,39.8a19.087,19.087,0,0,1-2.334-.145,19.787,19.787,0,0,1-2.225-.4A18.692,18.692,0,0,1,3.1,38.715,4.145,4.145,0,0,1,1.89,38.1a16.992,16.992,0,0,1,.181-1.791q.145-.959.308-1.917t.344-1.827q.181-.868.362-1.519H4.567Zm37.228,3H33.691V37.955q.434-.253.9-.47a7.962,7.962,0,0,1,1.085-.4V29.779a12.964,12.964,0,0,0-.6-4.577,2.284,2.284,0,0,0-2.334-1.465,3.38,3.38,0,0,0-2.46.995,5.72,5.72,0,0,0-1.447,2.3V37.087a8.037,8.037,0,0,1,1.031.326,4.642,4.642,0,0,1,.959.543v1.411H21.245V37.955a10.081,10.081,0,0,1,2.388-.868V15.163l-2.75-.289V13.462a11.524,11.524,0,0,1,1.393-.434q.85-.217,1.791-.38t1.881-.289q.941-.127,1.664-.2h1.23V24.931h.036a6.557,6.557,0,0,1,.977-1.574,7.5,7.5,0,0,1,1.393-1.3,6.8,6.8,0,0,1,1.682-.886,5.618,5.618,0,0,1,1.917-.326,8.957,8.957,0,0,1,2.587.344,4.006,4.006,0,0,1,1.9,1.212,5.8,5.8,0,0,1,1.158,2.334,14.451,14.451,0,0,1,.4,3.708v8.647q.615.145,1.23.326a4.227,4.227,0,0,1,1.158.543ZM60.716,34.12q0,.8.018,1.375t.09,1.23l2.5.362v1.266a7.291,7.291,0,0,1-1.176.434Q61.4,39,60.59,39.2t-1.61.326q-.8.127-1.411.2h-1.23a5.314,5.314,0,0,1-.434-1.664q-.072-.832-.109-2.026h-.181A4.6,4.6,0,0,1,55,37.431a4.91,4.91,0,0,1-1.1,1.194,5.608,5.608,0,0,1-1.574.85A5.95,5.95,0,0,1,50.3,39.8a6.517,6.517,0,0,1-2.207-.362,5.575,5.575,0,0,1-1.773-1.013,4.661,4.661,0,0,1-1.194-1.574,4.827,4.827,0,0,1-.434-2.08,5.236,5.236,0,0,1,.615-2.677,4.534,4.534,0,0,1,1.936-1.718,11.534,11.534,0,0,1,3.4-.995,48.64,48.64,0,0,1,5.047-.47,11.059,11.059,0,0,0-.253-4.558,2.242,2.242,0,0,0-2.352-1.447,5.7,5.7,0,0,0-2.062.362l-1.7,4.341H47.728a8.362,8.362,0,0,1-.561-.995q-.271-.561-.507-1.194a12.148,12.148,0,0,1-.4-1.284,10.082,10.082,0,0,1-.235-1.266,10.975,10.975,0,0,1,3.545-1.483,18.885,18.885,0,0,1,4.595-.543,10.45,10.45,0,0,1,3.365.452,5.059,5.059,0,0,1,2.044,1.23,4.24,4.24,0,0,1,1.031,1.827A8.4,8.4,0,0,1,60.9,26.6q0,2.171-.09,3.925T60.716,34.12Zm-8.14,2.786a2.733,2.733,0,0,0,1.3-.289,3.611,3.611,0,0,0,.923-.687,2.879,2.879,0,0,0,.579-.868,8.294,8.294,0,0,0,.308-.832V30.611a20.114,20.114,0,0,0-2.786.217,4.3,4.3,0,0,0-1.7.6,2.164,2.164,0,0,0-.85,1.049,4.433,4.433,0,0,0-.235,1.538,3.181,3.181,0,0,0,.651,2.135A2.255,2.255,0,0,0,52.576,36.906ZM74.355,25.437a5.07,5.07,0,0,0-1.013.724,4.395,4.395,0,0,0-1.049,1.664v9.262a8.725,8.725,0,0,1,1.447.271,6.68,6.68,0,0,1,1.447.6v1.411H64.7V37.955a6.63,6.63,0,0,1,1.23-.543q.579-.181,1.158-.326V23.846L64.7,23.556V22.145a9.446,9.446,0,0,1,1.429-.47q.85-.217,1.755-.38t1.755-.271l1.429-.181h1.23v4.812h.145a8.371,8.371,0,0,1,.85-1.664A8.741,8.741,0,0,1,74.609,22.4a6.456,6.456,0,0,1,1.664-1.158,3.95,3.95,0,0,1,1.881-.4,4.507,4.507,0,0,1,.687,1.429q.289.923.47,1.755v1.411Zm22.684,10.89a4.545,4.545,0,0,1-.923,1.248A6.441,6.441,0,0,1,94.561,38.7a9.6,9.6,0,0,1-2.135.8A10.644,10.644,0,0,1,89.8,39.8a11.012,11.012,0,0,1-3.98-.669,7.608,7.608,0,0,1-2.894-1.917,8.288,8.288,0,0,1-1.755-2.985,11.974,11.974,0,0,1-.6-3.907q0-4.631,2.424-7.055a9.1,9.1,0,0,1,6.729-2.424,11.452,11.452,0,0,1,3.455.506,6.021,6.021,0,0,1,2.677,1.664,6.43,6.43,0,0,1,1.483,3.039,12.055,12.055,0,0,1-.054,4.595H86.186a7,7,0,0,0,1.465,4.558,5.194,5.194,0,0,0,4.215,1.7,9.128,9.128,0,0,0,2.478-.362,5.664,5.664,0,0,0,2.008-.941ZM89.587,22.905a3.09,3.09,0,0,0-1.284.253,2.287,2.287,0,0,0-.977.923,5.87,5.87,0,0,0-.669,1.809,19.106,19.106,0,0,0-.362,2.876h5.825a10.136,10.136,0,0,0-.326-4.341A2.175,2.175,0,0,0,89.587,22.905Z" transform="translate(7484.575 -867.712)" fill="#fff"/>
  </g>
</svg>
