<svg xmlns="http://www.w3.org/2000/svg" width="390.584" height="347.548" viewBox="0 0 390.584 347.548">
  <g id="SS_logo" transform="translate(0 -0.008)">
    <path id="Path_1" data-name="Path 1" d="M79.985,109.952C37.185,158.309,26.9,233.028,57.963,289.436c21.183,38.437,58.724,66.414,99.79,83.279,74.734,30.642,167.617,24.179,228.855-27.864,17.34-14.768,32.078-33.221,38.928-54.707,6.271-19.842,5.607-40.9,3.612-61.453-4.682-48.188-17.34-97.509-48.667-134.925C313.753,14.03,144.6,36.735,79.985,109.952Z" transform="translate(-39.96 -43.58)" fill="#2c4441"/>
    <g id="Text_Logo" data-name="Text Logo" transform="translate(69.662 129.018)">
      <g id="Text_Seed" data-name="Text Seed">
        <path id="Path_2" data-name="Path 2" d="M60.514,138.933v-13.32h5.6l1.175,8.815.979,1.119a21.436,21.436,0,0,0,6.464,1.007,11.193,11.193,0,0,0,6.884-1.9,6.016,6.016,0,0,0,2.6-5.065,7.611,7.611,0,0,0-1.819-4.953,18.413,18.413,0,0,0-6.072-4.309c-.448-.252-1.147-.588-2.071-1.007a33.58,33.58,0,0,1-7.555-4.477,14.411,14.411,0,0,1-3.806-4.7,11.473,11.473,0,0,1-1.343-5.345,13.012,13.012,0,0,1,4.841-10.41A18.581,18.581,0,0,1,78.815,90.27a39.681,39.681,0,0,1,6.8.644,47.292,47.292,0,0,1,7.024,1.875v11.921H87.322l-1.2-7.639-1.063-1.035a8.674,8.674,0,0,0-2.351-.812,18.354,18.354,0,0,0-3.022-.252,9.6,9.6,0,0,0-6.3,1.959,6.212,6.212,0,0,0-2.379,5.065,6.94,6.94,0,0,0,1.371,4.142,15.363,15.363,0,0,0,4.589,3.778,38.052,38.052,0,0,0,4.421,2.127,44.769,44.769,0,0,1,6.072,3.162,14.8,14.8,0,0,1,4.925,4.925,11.641,11.641,0,0,1,1.735,6.156A13.264,13.264,0,0,1,88.777,137.2a22.387,22.387,0,0,1-14.16,4.17,43.682,43.682,0,0,1-14.188-2.435Z" transform="translate(-60.43 -86.1)" fill="#fff"/>
        <path id="Path_3" data-name="Path 3" d="M108.348,122.816v5.6a34.563,34.563,0,0,1-7.639,3.218,27.509,27.509,0,0,1-7.7,1.091,17.685,17.685,0,0,1-13.208-5.065,18.3,18.3,0,0,1-4.981-13.4,18.861,18.861,0,0,1,5.093-13.824,17.322,17.322,0,0,1,13.1-5.317,14.607,14.607,0,0,1,11.193,4.365,17.489,17.489,0,0,1,4.142,12.145v1.4H84.255v.2a14.327,14.327,0,0,0,3.162,9.878,11.025,11.025,0,0,0,8.7,3.61,19.421,19.421,0,0,0,5.933-1.007,31.143,31.143,0,0,0,6.3-2.882Zm-9.71-13.544v-.812a12,12,0,0,0-1.651-6.856,5.6,5.6,0,0,0-4.841-2.491,6.492,6.492,0,0,0-5.429,2.8,12.425,12.425,0,0,0-2.239,7.388Z" transform="translate(-34.584 -77.399)" fill="#fff"/>
        <path id="Path_4" data-name="Path 4" d="M122.117,122.817v5.6a34.361,34.361,0,0,1-7.611,3.218,27.647,27.647,0,0,1-7.7,1.091,17.8,17.8,0,0,1-13.236-5.065,18.413,18.413,0,0,1-4.981-13.4,18.973,18.973,0,0,1,5.093-13.824,17.406,17.406,0,0,1,13.124-5.317A14.579,14.579,0,0,1,118,99.479a17.489,17.489,0,0,1,4.03,12.285v1.4H98.163v.2a14.328,14.328,0,0,0,3.162,9.878,11.026,11.026,0,0,0,8.7,3.61,19.42,19.42,0,0,0,5.932-1.007,30.418,30.418,0,0,0,6.156-3.022Zm-9.682-13.544v-.812a12.032,12.032,0,0,0-1.679-6.856,5.373,5.373,0,0,0-4.729-2.407A6.52,6.52,0,0,0,100.6,102a12.845,12.845,0,0,0-2.239,7.388Z" transform="translate(-9.82 -77.4)" fill="#fff"/>
        <path id="Path_5" data-name="Path 5" d="M128.351,95.262h-5.4v-3.05L133.92,88.77h3.414v49.643l1.007,1.175,3.778.28v3.218H128.351v-4.114a29.187,29.187,0,0,1-6.184,3.638,14.663,14.663,0,0,1-5.6,1.147A12.62,12.62,0,0,1,106.3,138.8a22.163,22.163,0,0,1,1.259-27.032,18.273,18.273,0,0,1,13.712-5.6,32.207,32.207,0,0,1,3.3.168,19.154,19.154,0,0,1,3.638.56Zm0,40.94V111.632a27.218,27.218,0,0,0-2.966-.784,10.633,10.633,0,0,0-2.491-.28,9.067,9.067,0,0,0-7.7,3.806,16.566,16.566,0,0,0-2.8,10.214,15.531,15.531,0,0,0,2.63,9.57,8.647,8.647,0,0,0,7.248,3.442,11.723,11.723,0,0,0,2.8-.336,25.188,25.188,0,0,0,3.414-1.063Z" transform="translate(14.868 -88.77)" fill="#fff"/>
      </g>
      <g id="Text_Share" data-name="Text Share" transform="translate(88.763 69.791)">
        <path id="Path_6" data-name="Path 6" d="M92.262,163.826v-13.32h5.6l1.147,8.955.979,1.119a21.123,21.123,0,0,0,3.19.755,21.484,21.484,0,0,0,3.274.252,11.194,11.194,0,0,0,6.884-1.9,6.073,6.073,0,0,0,2.6-5.065,7.612,7.612,0,0,0-1.819-4.953,19.364,19.364,0,0,0-6.072-4.309l-2.071-1.007a34.167,34.167,0,0,1-7.555-4.449,14.775,14.775,0,0,1-3.89-4.841,11.921,11.921,0,0,1-1.343-5.345,13.068,13.068,0,0,1,4.841-10.438,18.721,18.721,0,0,1,12.509-4.086,39.393,39.393,0,0,1,6.8.616,47.735,47.735,0,0,1,7.052,1.9v11.921H119.07l-1.231-7.667-1.035-1.035a9.122,9.122,0,0,0-2.379-.784,18.361,18.361,0,0,0-3.022-.252,9.654,9.654,0,0,0-6.268,1.931,6.212,6.212,0,0,0-2.379,5.065,6.744,6.744,0,0,0,1.343,4.17,15.838,15.838,0,0,0,4.617,3.778,45.026,45.026,0,0,0,4.393,2.1,50.576,50.576,0,0,1,6.1,3.19,15.055,15.055,0,0,1,4.925,4.925,11.837,11.837,0,0,1,1.707,6.128,13.18,13.18,0,0,1-5.345,10.913,22.387,22.387,0,0,1-14.16,4.17,43.682,43.682,0,0,1-14.188-2.435Z" transform="translate(-92.15 -111.078)" fill="#fff"/>
        <path id="Path_7" data-name="Path 7" d="M116.858,113.71h3.5v22.219a55.485,55.485,0,0,1,7.388-3.47,16.4,16.4,0,0,1,5.2-1.035,9.207,9.207,0,0,1,7.583,3.05,14.244,14.244,0,0,1,2.49,9.178v19.588L144,164.36l3.89.28v3.3H129.842v-3.05l3.162-.28,1.035-1.119v-17.6a9.375,9.375,0,0,0-1.6-6.016,6.128,6.128,0,0,0-5.009-1.9,16.79,16.79,0,0,0-3.134.308c-1.175.224-2.491.532-3.946.951v24.262l1.119,1.119,3.246.28v3.3H106.532v-3.3l3.75-.28,1.007-1.119V120.118H106v-2.8Z" transform="translate(-67.243 -113.71)" fill="#fff"/>
        <path id="Path_8" data-name="Path 8" d="M144.579,152.624a33.247,33.247,0,0,1-6.772,3.722,16.79,16.79,0,0,1-5.876,1.147,9.374,9.374,0,0,1-6.912-2.8,10.074,10.074,0,0,1,.5-14.244c.252-.2.476-.42.756-.616,2.63-1.847,8.759-3.89,18.413-6.072v-2.183a8.4,8.4,0,0,0-1.679-5.821,6.772,6.772,0,0,0-5.317-1.819,10.905,10.905,0,0,0-1.651,0,17.373,17.373,0,0,0-1.875.308v7.024H127.4a3.945,3.945,0,0,1-2.574-.644,2.351,2.351,0,0,1-.812-2.043c0-2.295,1.539-4.281,4.617-5.988a23.337,23.337,0,0,1,11.389-2.547,15.223,15.223,0,0,1,10.634,2.8,13.572,13.572,0,0,1,3.078,10.13v19.029l.979,1.035,3.918.364v3.218H145.559Zm0-2.994v-12a29.382,29.382,0,0,0-9.906,3.526,6.044,6.044,0,0,0-2.8,5.149,5.429,5.429,0,0,0,1.483,4.058,5.233,5.233,0,0,0,3.974,1.483,10.328,10.328,0,0,0,3.19-.56,22.808,22.808,0,0,0,3.918-1.651Z" transform="translate(-37.907 -102.478)" fill="#fff"/>
        <path id="Path_9" data-name="Path 9" d="M136.554,156.428v-3.19l3.918-.28,1.035-1.119V126.43H136.19v-2.8l10.83-3.442h3.554l-.336,7.5c1.259-1.343,2.63-2.63,4.058-3.89a56.645,56.645,0,0,1,4.533-3.582h1.651a8.394,8.394,0,0,1,2.379.308,10.942,10.942,0,0,1,2.462.951l-.923,10.158h-3.834a5.345,5.345,0,0,0-2.015-2.015,5.6,5.6,0,0,0-2.8-.644,6.1,6.1,0,0,0-2.239.532,19.594,19.594,0,0,0-2.966,1.511v21.127l1.091,1.119,5.233.28v3.3Z" transform="translate(-12.951 -102.057)" fill="#fff"/>
        <path id="Path_10" data-name="Path 10" d="M181.136,147.588v5.6A34,34,0,0,1,173.5,156.4a27.509,27.509,0,0,1-7.7,1.091,17.77,17.77,0,0,1-13.208-5.065,18.3,18.3,0,0,1-4.981-13.4,18.972,18.972,0,0,1,5.093-13.656,17.322,17.322,0,0,1,13.1-5.317,14.607,14.607,0,0,1,11.193,4.365,17.546,17.546,0,0,1,4.03,12.285v1.4h-23.9v.2a14.187,14.187,0,0,0,3.078,9.626,10.913,10.913,0,0,0,8.7,3.61,19.42,19.42,0,0,0,5.932-1.007,31.149,31.149,0,0,0,6.3-2.938Zm-9.71-13.656v-.812a11.781,11.781,0,0,0-1.651-6.856,5.4,5.4,0,0,0-4.729-2.407,6.492,6.492,0,0,0-5.429,2.8,12.9,12.9,0,0,0-2.239,7.388Z" transform="translate(7.556 -102.339)" fill="#fff"/>
      </g>
    </g>
  </g>
</svg>
