<svg xmlns="http://www.w3.org/2000/svg" width="1117.635" height="533.904" viewBox="0 0 1117.635 533.904">
  <g id="Group_206" data-name="Group 206" transform="translate(-10719 -2764)">
    <path id="Path_396" data-name="Path 396" d="M-4383.728,4594.278v113.134l6.789,66.977-6.789,75.028v219.292l72.273,23.157H-4089.4l53.508-23.157V4828.72l-6.118-256.484-82.9-7.6h-229.905Z" transform="translate(15490.796 -1793.961)" fill="rgba(16,157,60,0.13)"/>
    <path id="Path_397" data-name="Path 397" d="M-3583.955,4604.568l-12.245,54.024V4707.3l12.245,174.865v177.5l10.769,54.746s40.539-6.355,45.4,0,139.966,0,139.966,0l101.53,7.557,45.4-7.557,7.54-82.8s0-172.564,0-172.564l-7.54-151.747v-92.729l-61.771-10-113.944-9.824H-3498.5Z" transform="translate(15069.992 -1824.065)" fill="rgba(156,54,175,0.08)"/>
    <g id="Group_205" data-name="Group 205" transform="translate(10719 2764)">
      <path id="Path_86" data-name="Path 86" d="M-5368.017,4650.658v69.31l-4.083,40.525,9.837,67.194v210.156l43.779,21.671,36.528,9.271,60.4,10.113,50.841-10.113h82.045l71.3-57.435V4817.97l-11.861-57.477V4598.34l-9.335-25.819-80.761-14.13-71.1-6.6h-70l-76.119-6.8-41.088,20.482v32.862Z" transform="translate(5377.635 -4544.995)" fill="rgba(196,86,49,0.1)"/>
    </g>
    <text id="PREFER_TO_SUPPORT_LOCAL" data-name="PREFER TO SUPPORT LOCAL" transform="translate(10765 2820)" font-size="26" font-family="BarlowCondensed-Bold, Barlow Condensed" font-weight="700"><tspan x="0" y="26">PREFER TO SUPPORT LOCAL</tspan></text>
    <text id="_57_" data-name="57%" transform="translate(10765 2851.452)" font-size="140" font-family="BarlowCondensed-Bold, Barlow Condensed" font-weight="700"><tspan x="0" y="140">57%</tspan></text>
    <text id="_47_" data-name="47%" transform="translate(11140 2851.452)" font-size="140" font-family="BarlowCondensed-Bold, Barlow Condensed" font-weight="700"><tspan x="0" y="140">47%</tspan></text>
    <text id="_60_" data-name="60%" transform="translate(11510 2851.452)" font-size="140" font-family="BarlowCondensed-Bold, Barlow Condensed" font-weight="700"><tspan x="0" y="140">60%</tspan></text>
    <text id="NEED_emotional_CONNECTION" data-name="NEED emotional CONNECTION" transform="translate(11140 2820)" font-size="26" font-family="BarlowCondensed-Bold, Barlow Condensed" font-weight="700"><tspan x="0" y="26">NEED EMOTIONAL CONNECTION</tspan></text>
    <text id="Lack_of_trust" data-name="Lack of trust" transform="translate(11510 2820)" font-size="26" font-family="BarlowCondensed-Bold, Barlow Condensed" font-weight="700"><tspan x="0" y="26">LACK OF TRUST</tspan></text>
    <line id="Line_36" data-name="Line 36" x2="85" transform="translate(10767 3020.5)" fill="none" stroke="#000" stroke-width="3"/>
    <line id="Line_37" data-name="Line 37" x2="85" transform="translate(11140 3020.5)" fill="none" stroke="#000" stroke-width="3"/>
    <line id="Line_38" data-name="Line 38" x2="85" transform="translate(11510 3020.5)" fill="none" stroke="#000" stroke-width="3"/>
    <text id="Of_people_have_never_donated_to_overseas_charities_before." data-name="Of people have never donated to overseas charities before." transform="translate(10765 3049)" font-size="27" font-family="OpenSans-Light, Open Sans" font-weight="300"><tspan x="0" y="29">Of people have never </tspan><tspan x="0" y="64">donated to overseas </tspan><tspan x="0" y="99">charities before.</tspan></text>
    <text id="Of_people_who_have_donated_need_to_connect_emotionally_or_via_shared_values_before_donating_to_a_charity._" data-name="Of people who have donated need to connect emotionally or via shared values before donating to a charity. " transform="translate(11140 3049)" font-size="27" font-family="OpenSans-Light, Open Sans" font-weight="300"><tspan x="0" y="29">Of people who have </tspan><tspan x="0" y="64">donated need to </tspan><tspan x="0" y="99">connect emotionally or </tspan><tspan x="0" y="134">via shared values before </tspan><tspan x="0" y="169">donating to a charity. </tspan></text>
    <text id="Of_people_who_don_t_donate_to_overseas_charities_do_so_because_of_a_lack_of_trust." data-name="Of people who don’t donate to overseas charities do so because of a lack of trust." transform="translate(11510 3049)" font-size="27" font-family="OpenSans-Light, Open Sans" font-weight="300"><tspan x="0" y="29">Of people who don’t </tspan><tspan x="0" y="64">donate to overseas </tspan><tspan x="0" y="99">charities do so because </tspan><tspan x="0" y="134">of a lack of trust.</tspan></text>
  </g>
</svg>
